<svg width="86px" height="37px" viewBox="0 0 86 37" version="1.1" xmlns="http://www.w3.org/2000/svg" xmlns:xlink="http://www.w3.org/1999/xlink">
    <g id="Page-2" stroke="none" stroke-width="1" fill="none" fill-rule="evenodd">
        <g id="Group" fill="#000000" fill-rule="nonzero">
            <g id="Shape">
                <path d="M76.7027027,35.8064516 L76.7027027,34.6129032 C76.7027027,32.8225806 74.4945946,31.6290323 72.4027027,30.6741935 C69.6135135,29.3612903 68.5675676,28.4064516 68.5675676,28.1677419 L68.5675676,27.9290323 C70.7756757,27.4516129 72.0540541,26.3774194 72.1702703,26.3774194 C72.2864865,26.2580645 72.4027027,26.1387097 72.4027027,26.0193548 C72.4027027,25.9 72.4027027,25.6612903 72.2864865,25.5419355 C72.2864865,25.5419355 71.2405405,24.1096774 71.2405405,19.6935484 C71.2405405,16.2322581 68.5675676,13.4870968 65.1972973,13.4870968 C64.8486486,13.4870968 64.3837838,13.4870968 64.0351351,13.6064516 L64.0351351,3.46129032 C64.0351351,1.5516129 62.0594595,0 60.3162162,0 L19.0594595,0 C17.4324324,0 16.2702703,1.31290323 16.2702703,3.46129032 L16.2702703,29.1225806 C16.2702703,31.0322581 17.3162162,32.2258065 19.0594595,32.2258065 L30.2162162,32.2258065 L30.2162162,35.8064516 L0,35.8064516 L0,37 L35.7945946,37 L76.1216216,37 L86,37 L86,35.8064516 L76.7027027,35.8064516 Z M19.0594595,31.0322581 C18.0135135,31.0322581 17.4324324,30.4354839 17.4324324,29.1225806 L17.4324324,3.46129032 C17.4324324,2.98387097 17.5486486,1.19354839 19.0594595,1.19354839 L60.2,1.19354839 C61.3621622,1.19354839 62.7567568,2.26774194 62.7567568,3.46129032 L62.7567568,13.9645161 C60.5486486,14.9193548 59.0378378,17.0677419 59.0378378,19.6935484 C59.0378378,19.8129032 59.0378378,19.9322581 59.0378378,20.0516129 C59.0378378,23.9903226 57.9918919,25.5419355 57.9918919,25.5419355 C57.7594595,25.7806452 57.8756757,26.1387097 58.1081081,26.3774194 C58.1081081,26.3774194 59.5027027,27.4516129 61.5945946,27.9290323 L61.5945946,28.1677419 C61.5945946,28.5258065 60.3162162,29.6 57.7594595,30.7935484 C57.527027,30.9129032 57.2945946,31.0322581 57.0621622,31.1516129 L54.7378378,31.1516129 C53.9243243,30.6741935 52.9945946,30.1967742 52.0648649,29.7193548 C50.3216216,28.7645161 49.972973,28.1677419 49.972973,27.5709677 C51.8324324,25.183871 52.9945946,21.3645161 52.9945946,19.0967742 C52.9945946,15.516129 50.2054054,12.6516129 46.7189189,12.6516129 C43.2324324,12.6516129 40.4432432,15.516129 40.4432432,19.0967742 C40.4432432,21.3645161 41.7216216,25.3032258 43.4648649,27.6903226 C43.3486486,28.2870968 43,28.883871 41.372973,29.7193548 C40.5594595,30.1967742 39.6297297,30.6741935 38.7,31.1516129 L19.0594595,31.1516129 L19.0594595,31.0322581 Z M31.3783784,32.2258065 L36.6081081,32.2258065 C36.4918919,32.2258065 36.4918919,32.3451613 36.3756757,32.3451613 C35.5621622,32.8225806 34.8648649,34.1354839 34.8648649,35.2096774 L34.8648649,35.4483871 C34.8648649,35.5677419 34.8648649,35.6870968 34.8648649,35.8064516 L31.3783784,35.8064516 L31.3783784,32.2258065 Z M36.027027,35.8064516 C36.027027,35.6870968 36.027027,35.5677419 36.027027,35.4483871 L36.027027,35.2096774 C36.027027,34.4935484 36.4918919,33.6580645 36.9567568,33.4193548 C38.8162162,32.3451613 40.4432432,31.3903226 41.8378378,30.6741935 C43.8135135,29.7193548 44.5108108,28.7645161 44.627027,27.3322581 C44.627027,27.2129032 44.627027,26.9741935 44.5108108,26.8548387 C42.7675676,24.8258065 41.6054054,21.0064516 41.6054054,18.8580645 C41.6054054,15.9935484 43.9297297,13.6064516 46.7189189,13.6064516 C49.5081081,13.6064516 51.8324324,15.9935484 51.8324324,18.8580645 C51.8324324,20.8870968 50.6702703,24.7064516 48.927027,26.7354839 C48.8108108,26.9741935 48.8108108,27.0935484 48.8108108,27.2129032 C48.927027,28.6451613 49.6243243,29.6 51.6,30.5548387 C52.9945946,31.2709677 54.272973,32.1064516 55.3189189,32.583871 L55.6675676,32.8225806 C55.9,32.9419355 56.0162162,32.9419355 56.2486486,32.8225806 C56.8297297,32.4645161 57.527027,32.1064516 58.2243243,31.7483871 C60.3162162,30.7935484 62.7567568,29.3612903 62.7567568,28.0483871 L62.7567568,27.4516129 C62.7567568,27.2129032 62.5243243,26.8548387 62.2918919,26.8548387 C60.8972973,26.616129 59.7351351,26.0193548 59.2702703,25.6612903 C59.6189189,24.8258065 60.2,23.0354839 60.3162162,19.9322581 C60.3162162,19.9322581 60.3162162,19.8129032 60.3162162,19.8129032 C60.3162162,19.6935484 60.3162162,19.6935484 60.3162162,19.5741935 C60.3162162,16.8290323 62.5243243,14.5612903 65.1972973,14.5612903 C67.8702703,14.5612903 70.0783784,16.8290323 70.0783784,19.5741935 C70.0783784,19.5741935 70.0783784,19.5741935 70.0783784,19.5741935 C70.0783784,23.0354839 70.6594595,24.7064516 71.1243243,25.5419355 C70.5432432,25.9 69.4972973,26.4967742 67.9864865,26.7354839 C67.7540541,26.7354839 67.5216216,26.9741935 67.5216216,27.3322581 L67.5216216,28.0483871 C67.5216216,29.1225806 69.0324324,30.316129 72.0540541,31.7483871 C74.3783784,32.8225806 75.6567568,33.7774194 75.6567568,34.6129032 L75.6567568,35.8064516 L36.027027,35.8064516 Z"></path>
            </g>
        </g>
    </g>
</svg>