<svg width="586px" height="390px" viewBox="0 0 586 390" version="1.1" xmlns="http://www.w3.org/2000/svg" xmlns:xlink="http://www.w3.org/1999/xlink">
    <g id="Page-1" stroke="none" stroke-width="1" fill="none" fill-rule="evenodd">
        <rect id="Rectangle" fill="#E5E9F0" x="0" y="0" width="586" height="390" rx="8"></rect>
        <g id="Group" transform="translate(103.000000, 183.000000)" fill="#000000" fill-rule="nonzero">
            <g transform="translate(0.000000, 1.000000)" id="Shape">
                <path d="M48.1621622,22.2580645 L48.1621622,21.516129 C48.1621622,20.4032258 46.7756757,19.6612903 45.4621622,19.0677419 C43.7108108,18.2516129 43.0540541,17.6580645 43.0540541,17.5096774 L43.0540541,17.3612903 C44.4405405,17.0645161 45.2432432,16.3967742 45.3162162,16.3967742 C45.3891892,16.3225806 45.4621622,16.2483871 45.4621622,16.1741935 C45.4621622,16.1 45.4621622,15.9516129 45.3891892,15.8774194 C45.3891892,15.8774194 44.7324324,14.9870968 44.7324324,12.2419355 C44.7324324,10.0903226 43.0540541,8.38387097 40.9378378,8.38387097 C40.7189189,8.38387097 40.427027,8.38387097 40.2081081,8.45806452 L40.2081081,2.1516129 C40.2081081,0.964516129 38.9675676,0 37.872973,0 L11.9675676,0 C10.9459459,0 10.2162162,0.816129032 10.2162162,2.1516129 L10.2162162,18.1032258 C10.2162162,19.2903226 10.872973,20.0322581 11.9675676,20.0322581 L18.972973,20.0322581 L18.972973,22.2580645 L0,22.2580645 L0,23 L22.4756757,23 L47.7972973,23 L54,23 L54,22.2580645 L48.1621622,22.2580645 Z M11.9675676,19.2903226 C11.3108108,19.2903226 10.9459459,18.9193548 10.9459459,18.1032258 L10.9459459,2.1516129 C10.9459459,1.85483871 11.0189189,0.741935484 11.9675676,0.741935484 L37.8,0.741935484 C38.5297297,0.741935484 39.4054054,1.40967742 39.4054054,2.1516129 L39.4054054,8.68064516 C38.0189189,9.27419355 37.0702703,10.6096774 37.0702703,12.2419355 C37.0702703,12.316129 37.0702703,12.3903226 37.0702703,12.4645161 C37.0702703,14.9129032 36.4135135,15.8774194 36.4135135,15.8774194 C36.2675676,16.0258065 36.3405405,16.2483871 36.4864865,16.3967742 C36.4864865,16.3967742 37.3621622,17.0645161 38.6756757,17.3612903 L38.6756757,17.5096774 C38.6756757,17.7322581 37.872973,18.4 36.2675676,19.1419355 C36.1216216,19.216129 35.9756757,19.2903226 35.8297297,19.3645161 L34.3702703,19.3645161 C33.8594595,19.0677419 33.2756757,18.7709677 32.6918919,18.4741935 C31.5972973,17.8806452 31.3783784,17.5096774 31.3783784,17.1387097 C32.5459459,15.6548387 33.2756757,13.2806452 33.2756757,11.8709677 C33.2756757,9.64516129 31.5243243,7.86451613 29.3351351,7.86451613 C27.1459459,7.86451613 25.3945946,9.64516129 25.3945946,11.8709677 C25.3945946,13.2806452 26.1972973,15.7290323 27.2918919,17.2129032 C27.2189189,17.583871 27,17.9548387 25.9783784,18.4741935 C25.4675676,18.7709677 24.8837838,19.0677419 24.3,19.3645161 L11.9675676,19.3645161 L11.9675676,19.2903226 Z M19.7027027,20.0322581 L22.9864865,20.0322581 C22.9135135,20.0322581 22.9135135,20.1064516 22.8405405,20.1064516 C22.3297297,20.4032258 21.8918919,21.2193548 21.8918919,21.8870968 L21.8918919,22.0354839 C21.8918919,22.1096774 21.8918919,22.183871 21.8918919,22.2580645 L19.7027027,22.2580645 L19.7027027,20.0322581 Z M22.6216216,22.2580645 C22.6216216,22.183871 22.6216216,22.1096774 22.6216216,22.0354839 L22.6216216,21.8870968 C22.6216216,21.4419355 22.9135135,20.9225806 23.2054054,20.7741935 C24.372973,20.1064516 25.3945946,19.5129032 26.2702703,19.0677419 C27.5108108,18.4741935 27.9486486,17.8806452 28.0216216,16.9903226 C28.0216216,16.916129 28.0216216,16.7677419 27.9486486,16.6935484 C26.8540541,15.4322581 26.1243243,13.0580645 26.1243243,11.7225806 C26.1243243,9.94193548 27.5837838,8.45806452 29.3351351,8.45806452 C31.0864865,8.45806452 32.5459459,9.94193548 32.5459459,11.7225806 C32.5459459,12.983871 31.8162162,15.3580645 30.7216216,16.6193548 C30.6486486,16.7677419 30.6486486,16.8419355 30.6486486,16.916129 C30.7216216,17.8064516 31.1594595,18.4 32.4,18.9935484 C33.2756757,19.4387097 34.0783784,19.9580645 34.7351351,20.2548387 L34.9540541,20.4032258 C35.1,20.4774194 35.172973,20.4774194 35.3189189,20.4032258 C35.6837838,20.1806452 36.1216216,19.9580645 36.5594595,19.7354839 C37.872973,19.1419355 39.4054054,18.2516129 39.4054054,17.4354839 L39.4054054,17.0645161 C39.4054054,16.916129 39.2594595,16.6935484 39.1135135,16.6935484 C38.2378378,16.5451613 37.5081081,16.1741935 37.2162162,15.9516129 C37.4351351,15.4322581 37.8,14.3193548 37.872973,12.3903226 C37.872973,12.3903226 37.872973,12.316129 37.872973,12.316129 C37.872973,12.2419355 37.872973,12.2419355 37.872973,12.1677419 C37.872973,10.4612903 39.2594595,9.0516129 40.9378378,9.0516129 C42.6162162,9.0516129 44.0027027,10.4612903 44.0027027,12.1677419 C44.0027027,12.1677419 44.0027027,12.1677419 44.0027027,12.1677419 C44.0027027,14.3193548 44.3675676,15.3580645 44.6594595,15.8774194 C44.2945946,16.1 43.6378378,16.4709677 42.6891892,16.6193548 C42.5432432,16.6193548 42.3972973,16.7677419 42.3972973,16.9903226 L42.3972973,17.4354839 C42.3972973,18.1032258 43.3459459,18.8451613 45.2432432,19.7354839 C46.7027027,20.4032258 47.5054054,20.9967742 47.5054054,21.516129 L47.5054054,22.2580645 L22.6216216,22.2580645 Z"></path>
            </g>
            <g id="SvgjsG5777" transform="translate(75.000000, 0.000000)">
                <path d="M14.7395723,4.50793651 L9.36205801,23.3968254 L6.05780224,23.3968254 L0,0.603174603 L3.40143976,0.603174603 L7.74232479,19.1428571 L7.80711412,19.1428571 L13.0226551,0.603174603 L16.4564895,0.603174603 L21.6720305,19.1428571 L21.7368198,19.1428571 L26.0777048,0.603174603 L29.5439339,0.603174603 L23.4213424,23.3968254 L20.1170866,23.3968254 L14.8043616,4.50793651 L14.7395723,4.50793651 Z M45.5145035,16.7619048 L36.1848401,16.7619048 L33.7552403,23.3968254 L30.5157739,23.3968254 L39.2623333,0.603174603 L42.8257463,0.603174603 L51.2483591,23.3968254 L47.8145247,23.3968254 L45.5145035,16.7619048 Z M37.1566801,14.031746 L44.3806902,14.031746 L40.9468558,4 L40.8820665,4 L37.1566801,14.031746 Z M52.123015,3.33333333 L52.123015,0.603174603 L71.0091044,0.603174603 L71.0091044,3.33333333 L63.1372009,3.33333333 L63.1372009,23.3968254 L59.9949185,23.3968254 L59.9949185,3.33333333 L52.123015,3.33333333 Z M93.2966335,7.46031746 L90.251535,7.46031746 C89.3768791,3.46031746 85.9754393,2.73015873 83.7402075,2.73015873 C79.5289011,2.73015873 76.1274614,5.77777778 76.1274614,11.7777778 C76.1274614,17.1428571 78.0711412,21.2698413 83.8373915,21.2698413 C85.8782553,21.2698413 89.4092738,20.3174603 90.4782977,15.015873 L93.5233961,15.015873 C92.2276096,23.6190476 85.1007834,24 83.3514715,24 C78.0711412,24 72.8879949,20.6349206 72.8879949,11.8730159 C72.8879949,4.85714286 76.9697226,0 83.7402075,0 C89.7332204,0 92.8431082,3.65079365 93.2966335,7.46031746 L93.2966335,7.46031746 Z M112.636248,10.031746 L112.636248,0.603174603 L115.778531,0.603174603 L115.778531,23.3968254 L112.636248,23.3968254 L112.636248,12.7619048 L100.488249,12.7619048 L100.488249,23.3968254 L97.3459665,23.3968254 L97.3459665,0.603174603 L100.488249,0.603174603 L100.488249,10.031746 L112.636248,10.031746 Z M127.699767,3.33333333 L127.699767,0.603174603 L146.585856,0.603174603 L146.585856,3.33333333 L138.713953,3.33333333 L138.713953,23.3968254 L135.571671,23.3968254 L135.571671,3.33333333 L127.699767,3.33333333 Z M167.739572,12 C167.739572,6.63492063 164.694474,2.73015873 159.640906,2.73015873 C154.587339,2.73015873 151.54224,6.63492063 151.54224,12 C151.54224,17.3650794 154.587339,21.2698413 159.640906,21.2698413 C164.694474,21.2698413 167.739572,17.3650794 167.739572,12 Z M170.979039,12 C170.979039,16.9206349 168.322676,24 159.640906,24 C150.959136,24 148.302774,16.9206349 148.302774,12 C148.302774,7.07936508 150.959136,0 159.640906,0 C168.322676,0 170.979039,7.07936508 170.979039,12 Z M184.843955,13.8412698 L184.843955,11.2063492 L195.048274,11.2063492 L195.048274,23.3968254 L193.007411,23.3968254 L192.262333,20.4444444 C190.674995,22.6031746 187.759475,24 184.584798,24 C180.600254,24 178.656574,22.5714286 177.457972,21.4285714 C173.894559,18.1269841 173.797375,14.2222222 173.797375,11.8095238 C173.797375,6.25396825 177.231209,0 184.81156,0 C189.152445,0 193.97925,2.41269841 194.659538,7.52380952 L191.61444,7.52380952 C190.610205,3.55555556 187.208766,2.73015873 184.649587,2.73015873 C180.470675,2.73015873 177.036841,6 177.036841,11.968254 C177.036841,16.6031746 178.591785,21.3650794 184.779166,21.3650794 C185.945374,21.3650794 187.824264,21.2380952 189.541181,19.9047619 C191.582045,18.3174603 192.10036,16.2857143 192.10036,13.8412698 L184.843955,13.8412698 L184.843955,13.8412698 Z M217.400593,20.6666667 L217.400593,23.3968254 L200.231421,23.3968254 L200.231421,0.603174603 L217.17383,0.603174603 L217.17383,3.33333333 L203.373703,3.33333333 L203.373703,10.3174603 L216.104806,10.3174603 L216.104806,13.047619 L203.373703,13.047619 L203.373703,20.6666667 L217.400593,20.6666667 L217.400593,20.6666667 Z M219.506246,3.33333333 L219.506246,0.603174603 L238.392335,0.603174603 L238.392335,3.33333333 L230.520432,3.33333333 L230.520432,23.3968254 L227.378149,23.3968254 L227.378149,3.33333333 L219.506246,3.33333333 L219.506246,3.33333333 Z M256.630531,10.031746 L256.630531,0.603174603 L259.772814,0.603174603 L259.772814,23.3968254 L256.630531,23.3968254 L256.630531,12.7619048 L244.482532,12.7619048 L244.482532,23.3968254 L241.34025,23.3968254 L241.34025,0.603174603 L244.482532,0.603174603 L244.482532,10.031746 L256.630531,10.031746 Z M282.189922,20.6666667 L282.189922,23.3968254 L265.02075,23.3968254 L265.02075,0.603174603 L281.963159,0.603174603 L281.963159,3.33333333 L268.163032,3.33333333 L268.163032,10.3174603 L280.894135,10.3174603 L280.894135,13.047619 L268.163032,13.047619 L268.163032,20.6666667 L282.189922,20.6666667 Z M289.835062,13.6190476 L289.835062,23.3968254 L286.69278,23.3968254 L286.69278,0.603174603 L297.447809,0.603174603 C301.270379,0.603174603 305.092949,1.9047619 305.092949,6.73015873 C305.092949,10.0952381 303.343638,11.3333333 301.853483,12.1904762 C303.181664,12.7301587 304.509845,13.3015873 304.639424,16.4761905 L304.833792,20.6031746 C304.866187,21.8730159 305.02816,22.3492063 306,22.8888889 L306,23.3968254 L302.145035,23.3968254 C301.69151,22 301.594326,18.5396825 301.594326,17.6825397 C301.594326,15.8095238 301.20559,13.6190476 297.447809,13.6190476 L289.835062,13.6190476 L289.835062,13.6190476 Z M289.835062,3.23809524 L289.835062,10.984127 L297.123862,10.984127 C299.423883,10.984127 301.853483,10.4126984 301.853483,7.04761905 C301.853483,3.52380952 299.229515,3.23809524 297.674571,3.23809524 L289.835062,3.23809524 L289.835062,3.23809524 Z" id="Shape"></path>
            </g>
        </g>
    </g>
</svg>